<svg width="1080" height="1080" viewBox="0 0 1080 1080" fill="none" xmlns="http://www.w3.org/2000/svg">
<g clip-path="url(#clip0)">
<path d="M794.626 189.994H824.31V799.857H809.838V211.92H800.231L549.566 503.871L542.053 488.035L534.355 471.117L436.508 211.92H426.161L39.344 799.857H12.0001L414.337 189.994H451.719L557.264 477.749L794.626 189.994Z" fill="white"/>
<path d="M585.128 1022.76C846.298 1022.76 1058.02 806.62 1058.02 540C1058.02 273.38 846.298 57.2415 585.128 57.2415C323.959 57.2415 112.24 273.38 112.24 540C112.24 806.62 323.959 1022.76 585.128 1022.76Z" stroke="white" stroke-width="67.5793" stroke-linecap="round" stroke-linejoin="round"/>
<path d="M158.69 889.232L162.794 765.009L280.063 775.986" stroke="white" stroke-width="33.6227"/>
<path d="M480.331 688.521C489.654 688.521 497.211 680.746 497.211 671.154C497.211 661.563 489.654 653.788 480.331 653.788C471.008 653.788 463.451 661.563 463.451 671.154C463.451 680.746 471.008 688.521 480.331 688.521Z" fill="white"/>
<path d="M694.146 688.521C703.468 688.521 711.026 680.746 711.026 671.154C711.026 661.563 703.468 653.788 694.146 653.788C684.823 653.788 677.266 661.563 677.266 671.154C677.266 680.746 684.823 688.521 694.146 688.521Z" fill="white"/>
</g>
<defs>
<clipPath id="clip0">
<rect width="1055" height="984" fill="white" transform="translate(12 48)"/>
</clipPath>
</defs>
</svg>
